<?xml version="1.0" encoding="UTF-8" standalone="no"?><!DOCTYPE svg PUBLIC "-//W3C//DTD SVG 1.1//EN" "http://www.w3.org/Graphics/SVG/1.1/DTD/svg11.dtd"><svg width="100%" height="100%" viewBox="0 0 2481 3508" version="1.1" xmlns="http://www.w3.org/2000/svg" xmlns:xlink="http://www.w3.org/1999/xlink" xml:space="preserve" xmlns:serif="http://www.serif.com/" style="fill-rule:evenodd;clip-rule:evenodd;stroke-linecap:round;stroke-linejoin:round;stroke-miterlimit:1.5;"><circle cx="1240.157" cy="1753.937" r="1037.23" style="fill:#0053a2;"/><clipPath id="_clip1"><circle cx="1240.157" cy="1753.937" r="1037.23"/></clipPath><g clip-path="url(#_clip1)"><g opacity="0.3"><path d="M557.045,2285.664l212.716,75.377" style="fill:none;stroke:#fff;stroke-width:12.5px;"/><path d="M556.898,2274.357l10.571,-242.181" style="fill:none;stroke:#fff;stroke-width:12.5px;"/><path d="M769.761,2361.04l67.884,184.901" style="fill:none;stroke:#fff;stroke-width:12.5px;"/><path d="M477.327,1540.748l-133.584,152.201" style="fill:none;stroke:#fff;stroke-width:12.5px;"/><path d="M461.082,1889.766l-117.338,-188.574" style="fill:none;stroke:#fff;stroke-width:12.5px;"/><path d="M477.327,1533.464l16.245,-253.83" style="fill:none;stroke:#fff;stroke-width:12.5px;"/><path d="M573.519,2030.633l122.192,-19.153" style="fill:none;stroke:#fff;stroke-width:12.5px;"/><path d="M561.985,2018.289c7.664,-3.027 16.344,0.737 19.372,8.402c3.027,7.664 -0.737,16.344 -8.402,19.372c-7.664,3.027 -16.344,-0.737 -19.372,-8.402c-3.027,-7.664 0.737,-16.344 8.402,-19.372Z" style="fill:#fff;stroke:#fff;stroke-width:12.5px;"/><path d="M706.633,1994.051c8.194,0.872 14.139,8.233 13.267,16.427c-0.872,8.194 -8.233,14.139 -16.427,13.267c-8.194,-0.872 -14.139,-8.233 -13.267,-16.427c0.872,-8.194 8.233,-14.139 16.427,-13.267Z" style="fill:#fff;stroke:#fff;stroke-width:12.5px;"/><path d="M337.805,1677.828c8.346,-3.278 17.782,0.837 21.06,9.182c3.278,8.346 -0.837,17.782 -9.182,21.06c-8.346,3.278 -17.782,-0.837 -21.06,-9.182c-3.278,-8.346 0.837,-17.782 9.182,-21.06Z" style="fill:#fff;stroke:#fff;stroke-width:12.5px;"/><path d="M471.388,1518.343c8.346,-3.278 17.782,0.837 21.06,9.182c3.278,8.346 -0.837,17.782 -9.182,21.06c-8.346,3.278 -17.782,-0.837 -21.06,-9.182c-3.278,-8.346 0.837,-17.782 9.182,-21.06Z" style="fill:#fff;stroke:#fff;stroke-width:12.5px;"/><path d="M487.634,1248.267c8.346,-3.278 17.782,0.837 21.06,9.182c3.278,8.346 -0.837,17.782 -9.182,21.06c-8.346,3.278 -17.782,-0.837 -21.06,-9.182c-3.278,-8.346 0.837,-17.782 9.182,-21.06Z" style="fill:#fff;stroke:#fff;stroke-width:12.5px;"/><path d="M455.143,1874.645c8.346,-3.278 17.782,0.837 21.06,9.182c3.278,8.346 -0.837,17.782 -9.182,21.06c-8.346,3.278 -17.782,-0.837 -21.06,-9.182c-3.278,-8.346 0.837,-17.782 9.182,-21.06Z" style="fill:#fff;stroke:#fff;stroke-width:12.5px;"/><path d="M1834.117,2385.431l126.694,-130.958" style="fill:none;stroke:#fff;stroke-width:12.5px;"/><path d="M1884.038,2003.799l89.813,235.156" style="fill:none;stroke:#fff;stroke-width:12.5px;"/><path d="M1987.801,2250.571c-6.563,7.619 -18.142,8.6 -25.842,2.189c-7.699,-6.411 -8.622,-17.801 -2.059,-25.42c6.563,-7.619 18.142,-8.6 25.842,-2.189c7.699,6.411 8.622,17.801 2.059,25.42Z" style="fill:#fff;stroke:#fff;stroke-width:12.5px;"/><path d="M1895.988,1997.494c-6.563,7.619 -18.142,8.6 -25.842,2.189c-7.699,-6.411 -8.622,-17.801 -2.059,-25.42c6.563,-7.619 18.142,-8.6 25.842,-2.189c7.699,6.411 8.622,17.801 2.059,25.42Z" style="fill:#fff;stroke:#fff;stroke-width:12.5px;"/><path d="M1848.067,2397.046c-6.563,7.619 -18.142,8.6 -25.842,2.189c-7.699,-6.411 -8.622,-17.801 -2.059,-25.42c6.563,-7.619 18.142,-8.6 25.842,-2.189c7.699,6.411 8.622,17.801 2.059,25.42Z" style="fill:#fff;stroke:#fff;stroke-width:12.5px;"/><path d="M1158.891,900.525l189.989,-52.726" style="fill:none;stroke:#fff;stroke-width:12.5px;"/><path d="M1361.749,840.006c4.75,6.39 2.84,15.07 -4.263,19.37c-7.103,4.301 -16.726,2.605 -21.476,-3.785c-4.75,-6.39 -2.84,-15.07 4.263,-19.37c7.103,-4.301 16.726,-2.605 21.476,3.785Z" style="fill:#fff;stroke:#fff;stroke-width:12.5px;"/><path d="M1536.626,947.356c4.75,6.39 2.84,15.07 -4.263,19.37c-7.103,4.301 -16.726,2.605 -21.476,-3.785c-4.75,-6.39 -2.84,-15.07 4.263,-19.37c7.103,-4.301 16.726,-2.605 21.476,3.785Z" style="fill:#fff;stroke:#fff;stroke-width:12.5px;"/><path d="M1907.382,1651.127c4.75,6.39 2.84,15.07 -4.263,19.37c-7.103,4.301 -16.726,2.605 -21.476,-3.785c-4.75,-6.39 -2.84,-15.07 4.263,-19.37c7.103,-4.301 16.726,-2.605 21.476,3.785Z" style="fill:#fff;stroke:#fff;stroke-width:12.5px;"/><path d="M2097.69,2007.225c4.75,6.39 2.84,15.07 -4.263,19.37c-7.103,4.301 -16.726,2.605 -21.476,-3.785c-4.75,-6.39 -2.84,-15.07 4.263,-19.37c7.103,-4.301 16.726,-2.605 21.476,3.785Z" style="fill:#fff;stroke:#fff;stroke-width:12.5px;"/><path d="M822.522,2186.004c4.75,6.39 2.84,15.07 -4.263,19.37c-7.103,4.301 -16.726,2.605 -21.476,-3.785c-4.75,-6.39 -2.84,-15.07 4.263,-19.37c7.103,-4.301 16.726,-2.605 21.476,3.785Z" style="fill:#fff;stroke:#fff;stroke-width:12.5px;"/><path d="M381.048,2054.656c4.75,6.39 2.84,15.07 -4.263,19.37c-7.103,4.301 -16.726,2.605 -21.476,-3.785c-4.75,-6.39 -2.84,-15.07 4.263,-19.37c7.103,-4.301 16.726,-2.605 21.476,3.785Z" style="fill:#fff;stroke:#fff;stroke-width:12.5px;"/><path d="M606.163,1651.127c4.75,6.39 2.84,15.07 -4.263,19.37c-7.103,4.301 -16.726,2.605 -21.476,-3.785c-4.75,-6.39 -2.84,-15.07 4.263,-19.37c7.103,-4.301 16.726,-2.605 21.476,3.785Z" style="fill:#fff;stroke:#fff;stroke-width:12.5px;"/><path d="M970.544,884.167c4.75,6.39 2.84,15.07 -4.263,19.37c-7.103,4.301 -16.726,2.605 -21.476,-3.785c-4.75,-6.39 -2.84,-15.07 4.263,-19.37c7.103,-4.301 16.726,-2.605 21.476,3.785Z" style="fill:#fff;stroke:#fff;stroke-width:12.5px;"/><path d="M713.452,1169.418c4.75,6.39 2.84,15.07 -4.263,19.37c-7.103,4.301 -16.726,2.605 -21.476,-3.785c-4.75,-6.39 -2.84,-15.07 4.263,-19.37c7.103,-4.301 16.726,-2.605 21.476,3.785Z" style="fill:#fff;stroke:#fff;stroke-width:12.5px;"/><path d="M1171.761,892.732c4.75,6.39 2.84,15.07 -4.263,19.37c-7.103,4.301 -16.726,2.605 -21.476,-3.785c-4.75,-6.39 -2.84,-15.07 4.263,-19.37c7.103,-4.301 16.726,-2.605 21.476,3.785Z" style="fill:#fff;stroke:#fff;stroke-width:12.5px;"/><path d="M558.625,2270.817c8.194,0.872 14.139,8.233 13.267,16.427c-0.872,8.194 -8.233,14.139 -16.427,13.267c-8.194,-0.872 -14.139,-8.233 -13.267,-16.427c0.872,-8.194 8.233,-14.139 16.427,-13.267Z" style="fill:#fff;stroke:#fff;stroke-width:12.5px;"/><path d="M771.342,2346.193c8.194,0.872 14.139,8.233 13.267,16.427c-0.872,8.194 -8.233,14.139 -16.427,13.267c-8.194,-0.872 -14.139,-8.233 -13.267,-16.427c0.872,-8.194 8.233,-14.139 16.427,-13.267Z" style="fill:#fff;stroke:#fff;stroke-width:12.5px;"/><path d="M839.226,2531.094c8.194,0.872 14.139,8.233 13.267,16.427c-0.872,8.194 -8.233,14.139 -16.427,13.267c-8.194,-0.872 -14.139,-8.233 -13.267,-16.427c0.872,-8.194 8.233,-14.139 16.427,-13.267Z" style="fill:#fff;stroke:#fff;stroke-width:12.5px;"/><path d="M1918.569,1417.654l198.794,155.627" style="fill:none;stroke:#fff;stroke-width:12.5px;"/><path d="M1910.911,1402.724l40.476,-211.287" style="fill:none;stroke:#fff;stroke-width:12.5px;"/><path d="M1783.053,996.352l168.334,188.762" style="fill:none;stroke:#fff;stroke-width:12.5px;"/><path d="M2117.363,1573.282l-69.834,185.232" style="fill:none;stroke:#fff;stroke-width:12.5px;"/><path d="M1949.963,1176.574c-8.203,0.786 -14.224,8.085 -13.438,16.288c0.786,8.203 8.085,14.224 16.288,13.438c8.203,-0.786 14.224,-8.085 13.438,-16.288c-0.786,-8.203 -8.085,-14.224 -16.288,-13.438Z" style="fill:#fff;stroke:#fff;stroke-width:12.5px;"/><path d="M1775.218,973.797c-8.203,0.786 -14.224,8.085 -13.438,16.288c0.786,8.203 8.085,14.224 16.288,13.438c8.203,-0.786 14.224,-8.085 13.438,-16.288c-0.786,-8.203 -8.085,-14.224 -16.288,-13.438Z" style="fill:#fff;stroke:#fff;stroke-width:12.5px;"/><path d="M1902.756,1405.147c-6.903,4.501 -8.853,13.759 -4.352,20.662c4.501,6.903 13.759,8.853 20.662,4.352c6.903,-4.501 8.853,-13.759 4.352,-20.662c-4.501,-6.903 -13.759,-8.853 -20.662,-4.352Z" style="fill:#fff;stroke:#fff;stroke-width:12.5px;"/><path d="M2109.208,1560.775c-6.903,4.501 -8.853,13.759 -4.352,20.662c4.501,6.903 13.759,8.853 20.662,4.352c6.903,-4.501 8.853,-13.759 4.352,-20.662c-4.501,-6.903 -13.759,-8.853 -20.662,-4.352Z" style="fill:#fff;stroke:#fff;stroke-width:12.5px;"/><path d="M2039.374,1746.007c-6.903,4.501 -8.853,13.759 -4.352,20.662c4.501,6.903 13.759,8.853 20.662,4.352c6.903,-4.501 8.853,-13.759 4.352,-20.662c-4.501,-6.903 -13.759,-8.853 -20.662,-4.352Z" style="fill:#fff;stroke:#fff;stroke-width:12.5px;"/></g></g><circle cx="1240.157" cy="1753.937" r="1037.23" style="fill:none;stroke:#000e86;stroke-width:12.5px;"/><path id="hair-up" serif:id="hair up" d="M699.724,1085.126c121.446,-101.421 210.645,-76.306 195.635,50.701c-2.349,19.871 14.191,37.053 18.79,28.12l0,3.525c150.483,-199.366 -92.214,-240.279 -214.425,-82.346Z" style="fill:#719bd5;stroke:#000e86;stroke-width:16.67px;"/><path id="body" d="M831.181,1323.004c-56.905,117.312 -29.019,205.173 8.505,261.252c0,0 67.893,47.445 28.992,100.322c-38.901,52.876 -96.718,71.24 -96.718,71.24l142.156,254.515c22.548,51.882 64.275,48.986 94.209,33.716l109,-51.342c10.921,-4.239 17.836,-1.727 21.577,6.134l11.91,18.049c45.174,87.055 79.735,183.682 89.345,277.283l-154.915,165.215c-94.889,102.299 -147.463,157.66 -203.384,264.29c297.184,107.628 605.579,83.676 880.847,-73.359c6.689,-182.553 -111.125,-331.904 -170.544,-421.24c-71.338,-110.227 -100.298,-211.205 -131.876,-343.777c63.795,-29.215 150.028,-115.308 179.601,-166.179c56.611,-89.25 76.268,-195.703 55.344,-321.046c-32.298,-193.476 -183.771,-346.655 -455.072,-337.288c0,0 -311.73,61.736 -408.976,262.215Z" style="fill:#c4d9f6;stroke:#003094;stroke-width:16.67px;"/><path id="back-hair" serif:id="back hair" d="M905.259,1158.485c182.357,253.821 307.093,551.558 462.637,730.979c57.813,137.052 300.794,146.262 265.792,12.272c123.921,-52.026 175.249,-176.716 122.185,-255.396c43.359,-48.754 44.292,-102.836 20.988,-166.027c143.999,-559.194 -759.16,-587.926 -871.601,-321.828Z" style="fill:#719bd5;stroke:#000e86;stroke-width:16.67px;"/><path id="long-side-hair" serif:id="long side hair" d="M1150.534,1327.479c0,0 28.632,54.414 72.276,157.126c0,0 14.644,142.776 11.517,176.201c-11.389,121.713 -68.106,253.932 -105.676,309.152c-49.143,72.23 -90.409,125.821 -118.224,153.007c-27.477,26.855 -96.438,56.678 -105.167,11.129c-0.124,28.042 23.117,61.09 92.801,30.932c-34.53,136.643 46.373,194.186 112.493,172.343c-77.672,2.172 -93.115,-89.047 -52.537,-167.29c-15.18,56.791 19.871,93.221 69.18,82.869c-35.113,-8.471 -54.359,-36.877 -46.29,-68.529c11.427,-44.828 59.751,-107.879 101.36,-151.102c53.137,-55.198 157.511,-159.915 215.705,-258.007c39.878,-67.218 44.825,-135.528 35.251,-145.363c-21.054,-133.286 -153.897,-367.335 -153.897,-367.335" style="fill:#719bd5;stroke:#000e86;stroke-width:16.67px;"/><path id="hair-up1" serif:id="hair up" d="M1359.19,1897.226c-24.277,13.329 36.742,64.962 124.313,148.229c64.333,61.17 130.045,38.303 136.002,-3.126c23.903,-21.988 53.047,-18.699 68.838,-0.189c-7.524,-12.533 -28.32,-58.32 -66.661,-27.595c2.514,-13.433 -2.019,-23.378 -5.72,-38.346c-19.558,13.135 -32.308,16.048 -32.308,16.048c0,0 13.637,47.573 -12.131,40.938c-74.864,-19.279 -89.708,-172.578 -62.282,-258.081" style="fill:#719bd5;stroke:#000e86;stroke-width:16.67px;"/><path id="hair-up2" serif:id="hair up" d="M1332.302,1874.981c-25.59,61.835 16.767,206.924 188.518,256.981c48.037,14 107.456,22.586 107.456,22.586c2.162,1.225 26.524,29.525 0.912,56.101c31.099,-4.484 31.516,-40.949 22.2,-57.445c39.509,3.338 90.583,31.487 13.217,109.814c178.051,-137.478 1.842,-137.349 -108.493,-192.897c-86.216,-43.406 -131.341,-141.94 -128.636,-213.133" style="fill:#719bd5;stroke:#000e86;stroke-width:16.67px;"/><path id="bangs" d="M712.043,1357.957c-49.831,83.139 -89.912,93.424 -136.121,93.225c22.106,18.867 78.368,10.932 112.61,-3.354c-60.158,100.677 -4.328,158.519 83.429,173.916c-35.412,-23.65 -53.274,-86.447 -33.098,-130.47c-2.723,35.432 24.576,77.206 60.269,82.22c34.769,43.71 68.428,54.071 123.473,39.75c-65.83,-5.897 -92.996,-54.121 -101.528,-121.132c13.572,51.788 119.74,122.889 231.736,68.521c12.618,29.55 71.649,48.661 97.921,38.379c21.253,47.256 26.094,180.052 -32.852,222.345c73.738,-28.59 84.441,-76.47 88.11,-99.509c0.973,23.782 -4.978,46.578 -17.893,71.356c69.32,-24.834 82.409,-180.224 69.796,-261.543c-14.335,-92.421 -126.172,-415.465 -344.177,-373.704c-69.055,-157.559 -207.913,298.462 -316.373,161.651c31.315,47.57 61.607,65.557 114.698,38.349Z" style="fill:#719bd5;stroke:#000e86;stroke-width:16.67px;"/><path id="clothes" d="M1161.306,2365.777c121.226,31.922 287.943,53.664 452.381,-120.054c101.55,113.438 164.048,262.758 151.036,403.623c-305.268,165.794 -608.218,176.828 -882.864,75.344c0.855,-58.983 175.842,-274.41 279.447,-358.913Z" style="fill:#a5caff;stroke:#000e86;stroke-width:16.67px;"/><path d="M1153.941,2786.695c106.213,-252.692 245.325,-383.126 350.733,-356.909c38.293,9.524 133.267,61.736 186.946,257.79l-31.531,14.614c-99.068,-389.267 -320.235,-311.049 -445.807,87.697c-21.51,0.113 -41.622,-0.953 -60.34,-3.192Z" style="fill:#4a5f9d;stroke:#000e86;stroke-width:16.67px;"/><path d="M920.882,2625.577c58.52,29.175 117.664,31.564 154.343,-25.736c96.923,36.156 103.793,39.077 171.638,95.512c-14.351,32.5 -20.787,64.125 -28.989,94.249c-88.518,7.061 -230.569,-26.393 -353.31,-67.817c6.034,-32.381 23.457,-60.094 56.318,-96.209Z" style="fill:#4a5f9d;stroke:#000e86;stroke-width:16.67px;"/><path id="braids" d="M999.526,1127.923c18.842,-0.242 23.918,-7.1 44.854,8.013c22.647,16.349 51.364,39.801 78.684,62.974c47.376,40.184 90.548,79.528 90.569,79.528c-6.645,21.797 26.656,108.271 74.954,122.082c0,0 -1.71,110.429 76.402,166.42c-44.812,49.756 -26.093,84.786 3.096,127.412c-54.794,39.634 -77.635,92.974 -56.876,140.668c-46.002,23.678 -69.562,72.666 -47.026,142.666c-40.383,22.182 -74.319,76.036 -50.493,128.863c-65.239,20.185 -32.557,94.407 -21.007,111.053c-55.415,10.086 -60.575,71.585 -25.943,106.924c-42.683,73.806 50.047,120.87 46.95,110.949c-24.513,52.112 65.068,102.027 63.9,94.279c-25.543,49.367 53.742,100.356 63.031,91.046c-17.688,39.688 -5.86,81.851 21.042,84.327c-25.803,49.497 -0.077,71.166 1.816,79.06c36.955,-2.528 74.105,-14.143 74.105,-14.143c9.404,1.799 12.924,-48.904 -19.774,-74.311c21.837,-52.619 -12.968,-83.044 -37.129,-89.513c11.457,-25.464 -6.465,-78.708 -58.333,-85.214c31.997,-35.374 -27.996,-96.986 -53.21,-95.186c29.617,-56.361 -22.832,-83.573 -41.959,-88.789c28.767,-20.802 24.763,-67.041 12.027,-91.444c58.894,-49.295 31.568,-104.601 17.444,-124.946c59.125,-24.68 93.53,-91.892 54.37,-121.513c50.743,-26.765 88.861,-98.729 71.018,-146.924c47.375,-34.542 64.455,-84.184 51.708,-143.42c38.93,-45.062 59.178,-99.438 5.509,-156.141c24.186,-55.209 -1.631,-119.327 -72.021,-173.241c19.096,-63.022 -4.534,-130.478 -92.219,-176.119c-88.452,-129.413 -273.226,-242.106 -364.614,-55.72" style="fill:#719bd5;stroke:#000e86;stroke-width:16.67px;"/><path d="M1010.349,1097.345c-37.899,11.67 -42.511,35.612 -42.511,35.612c87.505,22.831 176.844,95.595 239.93,167.52c1.444,-8.718 0.663,-14.723 9.524,-20.897c4.557,-3.175 6.814,-1.44 13.485,0.982l-213.611,-181.773" style="fill:#719bd5;"/><g id="Braids-texture" serif:id="Braids texture"><path d="M1403.623,2735.709c-1.923,1.523 -9.642,13.415 -6.978,16.711" style="fill:none;stroke:#000e86;stroke-width:8.33px;"/><path d="M1386.859,2738.019c2.259,-0.136 10.445,18.153 11.189,19.815c2.772,6.194 3.692,12.5 2.607,7.616" style="fill:none;stroke:#000e86;stroke-width:8.33px;"/><path d="M1385.813,2645.17c1.555,-5.287 -5.727,15.703 -2.373,12.452" style="fill:none;stroke:#000e86;stroke-width:8.33px;"/><path d="M1366.125,2647.931c11.57,4.733 30.164,28.127 26.71,29.163" style="fill:none;stroke:#000e86;stroke-width:8.33px;"/><path d="M1332.357,2557.519c-1.164,-2.514 -3.05,14.741 0.201,13.39" style="fill:none;stroke:#000e86;stroke-width:8.33px;"/><path d="M1313.629,2565.964c15.56,2.31 41.135,15.968 35.412,18.407" style="fill:none;stroke:#000e86;stroke-width:8.33px;"/><path d="M1277.735,2461.367c-1.505,0.985 -1.814,8.553 -1.845,9.312c-0.215,5.252 1.529,8.023 1.604,8.193" style="fill:none;stroke:#000e86;stroke-width:8.33px;"/><path d="M1258.084,2470.282c9.003,-3.336 30,18.279 32.124,20.465" style="fill:none;stroke:#000e86;stroke-width:8.33px;"/><path d="M1220.907,2386.655c-1.874,-4.578 5.497,-15.166 6.296,-16.314" style="fill:none;stroke:#000e86;stroke-width:8.33px;"/><path d="M1200.494,2377.885c26.861,3.416 37.86,30.697 33.728,25.915" style="fill:none;stroke:#000e86;stroke-width:8.33px;"/><path d="M1199.853,2285.234c-2.633,-5.332 27.612,-18.668 13.716,-10.575" style="fill:none;stroke:#000e86;stroke-width:8.33px;"/><path d="M1191.992,2266.105c8.632,12.054 7.951,33.425 7.857,36.403l1.006,-1.898" style="fill:none;stroke:#000e86;stroke-width:8.33px;"/><path d="M1227.725,2179.049c4.491,-6.449 3.662,-7.213 13.234,-14.365" style="fill:none;stroke:#000e86;stroke-width:8.33px;"/><path d="M1370.015,1781.594c22.08,-18.248 25.638,-18.04 24.343,-16.097" style="fill:none;stroke:#000e86;stroke-width:8.33px;"/><path d="M1316.917,1888.357c0.706,7.436 7.458,18.736 -0.911,53.018l1.312,-2.488" style="fill:none;stroke:#000e86;stroke-width:8.33px;"/><path d="M1321.489,1912.251c1.161,-6.01 18.371,-12.299 20.172,-12.957c0.39,-0.142 -1.472,0.756 -1.083,0.614" style="fill:none;stroke:#000e86;stroke-width:8.33px;"/><path d="M1256.6,2034.028c2.734,0.615 2.469,25.644 -1.043,37.897c-0.585,2.04 -1.473,3.984 -2.045,6.028c-0.147,0.524 0.909,-1.968 0.762,-1.444" style="fill:none;stroke:#000e86;stroke-width:8.33px;"/><path d="M1259.087,2055.864c6.28,-6.991 19.736,-11.371 21.616,-11.983c0.668,-0.217 1.269,-0.851 1.965,-0.758c0.417,0.056 -1.299,0.847 -0.882,0.902" style="fill:none;stroke:#000e86;stroke-width:8.33px;"/><path d="M1221.549,2158.332c7.456,16.471 7.825,53.615 5.775,38.114" style="fill:none;stroke:#000e86;stroke-width:8.33px;"/><path d="M1262.213,1291.857c20.558,1.957 50.129,32.004 47.624,31.897" style="fill:none;stroke:#000e86;stroke-width:8.33px;"/><path d="M1289.623,1278.438c-3.248,9.336 -2.133,14.971 -1.106,25.882l-0.498,-2.332" style="fill:none;stroke:#000e86;stroke-width:8.33px;"/><path d="M1352.086,1463.444c2.53,-0 43.177,32.859 46.679,48.514l-1.094,-1.894" style="fill:none;stroke:#000e86;stroke-width:8.33px;"/><path d="M1377.996,1483.792c-3.858,-0.868 2.034,-30.342 2.406,-25.987" style="fill:none;stroke:#000e86;stroke-width:8.33px;"/><path d="M1399.973,1615.64c0.141,-0.762 16.735,28.567 12.713,48.112l0.08,-2.166" style="fill:none;stroke:#000e86;stroke-width:8.33px;"/><path d="M1411.403,1638.378c-0.618,-6.117 19.611,-29.181 16.202,-22.125" style="fill:none;stroke:#000e86;stroke-width:8.33px;"/><path d="M1369.454,1751.89c1.299,0.234 0.806,18.428 0.762,20.032c-0.625,23.004 -3.626,29.591 -5.549,36.583l0.856,-2.836" style="fill:none;stroke:#000e86;stroke-width:8.33px;"/></g></svg>